# xmcd
#
# Track frame offsets:
#	150
#	17447
#	38480
#
# Disc length: 843 seconds
#
# Revision: 1
# Processed by: cddbd v1.5.1PL0 Copyright (c) Steve Scherf et al.
# Submitted via: CDex 1.50Beta5
#
DISCID=12034903
DTITLE=さねよしいさ子 - とても正確なことが
DYEAR=1900
DGENRE=Pop
TTITLE0=とても正確なことが
TTITLE1=アゼリカ アゼリコ
TTITLE2=Willow Weep for Me
EXTD=
EXTT0=
EXTT1=
EXTT2=
PLAYORDER=
